<svg xmlns="http://www.w3.org/2000/svg" viewBox="0 0 100 100" width="100" height="100"><title>CUT2</title><rect width="100" height="100" fill="#000"/><path fill="#f3f0e8" transform="translate(28.1053 75.1357) scale(0.072 -0.072)" d="M323 -12Q195 -12 132.5 81Q70 174 70 349Q70 524 132.5 617Q195 710 323 710Q371 710 406 697Q441 684 466 662Q491 640 508 612.5Q525 585 538 557L466 524Q457 547 445 567.5Q433 588 416.5 603.5Q400 619 377.5 628Q355 637 323 637Q240 637 199.5 574Q159 511 159 406L159 292Q159 187 199.5 124Q240 61 323 61Q355 61 377.5 70Q400 79 416.5 94.5Q433 110 445 130.5Q457 151 466 174L538 141Q525 112 508 85Q491 58 466 36Q441 14 406 1Q371 -12 323 -12Z"/></svg>
