<svg xmlns="http://www.w3.org/2000/svg" viewBox="0 0 84 84"><defs><style>.a{fill:#fff;}</style></defs><title>CUT2-favicon</title><path d="M49,83.41A42,42,0,1,0,42,84c.37,0,.74,0,1.11,0l.14-.13Z"/><path class="a" d="M48.34,61.53l-.11-.14c-.06-.07-.12-.15-.2-.23L48,61.08a9.27,9.27,0,0,1-1.86.94,11.36,11.36,0,0,1-3.9.62c-3.92,0-6.86-1.25-9-3.79-.25-.3-.48-.6-.7-.92s-.38-.62-.58-1c-.1-.17-.19-.34-.28-.52h0L31.44,56h0A27.68,27.68,0,0,1,29.3,44.28V37.51c0-5.87,1.08-10.46,3.22-13.65s5.36-4.72,9.67-4.72a11.26,11.26,0,0,1,3.89.62,9.56,9.56,0,0,1,3,1.71,11.26,11.26,0,0,1,2.2,2.62,21.32,21.32,0,0,1,1.66,3.31l.19.48,4.58-2.06-.17-.45a25.19,25.19,0,0,0-2.17-4.19,14.89,14.89,0,0,0-3.17-3.5,15.17,15.17,0,0,0-4.32-2.39,16.61,16.61,0,0,0-5.64-.89c-12.28,0-18.5,8.91-18.5,26.49s6.22,26.49,18.5,26.49a16.61,16.61,0,0,0,5.64-.89,16.29,16.29,0,0,0,2.31-1.07c0-.26-.11-.52-.18-.77A8.08,8.08,0,0,0,48.34,61.53Z"/><path class="a" d="M52.88,54.39a17.13,17.13,0,0,1-1,2.07c.2.17.39.33.58.51a1.82,1.82,0,0,1,.27.24,12.69,12.69,0,0,1,2.49,3.42l0,0a.21.21,0,0,1,0-.06,25.19,25.19,0,0,0,2.17-4.19l.17-.44L53.07,53.9Z"/><path class="a" d="M54.82,62.12c-.14-.35-.28-.7-.45-1a11.82,11.82,0,0,0-2.3-3.16l-.25-.22c-.25-.23-.5-.46-.77-.67a13.77,13.77,0,0,0-3.66-2A18.14,18.14,0,0,0,41,54a18.48,18.48,0,0,0-6.12.93A16.42,16.42,0,0,0,32.54,56l0,.06c.08.16.16.3.24.44.19.34.37.65.54.91a10.19,10.19,0,0,0,.64.83,9.58,9.58,0,0,0,.81.87A12.77,12.77,0,0,1,41,57.7c3.24,0,5.73.83,7.47,2.46l.34.31c.12.13.23.28.35.41a9.36,9.36,0,0,1,1.82,3.5c.09.33.17.68.23,1a13.41,13.41,0,0,1,.23,2.52v1.36a14,14,0,0,1-2.23,7.53,36.38,36.38,0,0,1-5.91,7l-.14.13A42.27,42.27,0,0,0,49,83.41,38.7,38.7,0,0,0,53.19,78a17.85,17.85,0,0,0,2.73-9.68,16.77,16.77,0,0,0-1-5.87Z"/><path class="a" d="M27.27,61l-.07.11a21.07,21.07,0,0,0-1.95,4.4l3.82,1.37a15.94,15.94,0,0,1,1.05-2.56A16.45,16.45,0,0,1,27.27,61Z"/></svg>